<?xml version="1.0" encoding="utf-8"?>
<!-- Generator: Adobe Illustrator 22.1.0, SVG Export Plug-In . SVG Version: 6.00 Build 0)  -->
<svg version="1.1" xmlns="http://www.w3.org/2000/svg" xmlns:xlink="http://www.w3.org/1999/xlink" x="0px" y="0px"
	 viewBox="0 0 750 500" style="enable-background:new 0 0 750 500;" xml:space="preserve">
<style type="text/css">
	.st0{fill:url(#SVGID_1_);}
	.st1{fill:url(#SVGID_2_);}
</style>
<g id="BACKGROUND">
</g>
<g id="Layer_3">
</g>
<g id="Layer_4">
</g>
<g id="OBJECTS">
	<g>
		<linearGradient id="SVGID_1_" gradientUnits="userSpaceOnUse" x1="440.1717" y1="270.724" x2="735.8142" y2="50.7407">
			<stop  offset="0" style="stop-color:#2A70AE;stop-opacity:0.8"/>
			<stop  offset="1" style="stop-color:#0F4C82;stop-opacity:0.8"/>
		</linearGradient>
		<path class="st0" d="M448.1,58.2c15.3,31,5,28.1,4.8,59.6c-0.3,32.7,36.3,25.4,33.4,53.2c-2.4,22.7,2.2,51.5,19.1,58.9
			c21.1,9.2,40.2,2.8,57.9,6.1c21.8,4,10.2,38.5,26.7,41.7c22.6,4.5,37.5-14.1,48.8,0.4c5.1,6.6,35.7,47.4,40,54.7
			c21,35,50.8,44,71.2,9.2V0H390.4C382.7,39.5,430.6,22.8,448.1,58.2z"/>
		<g>
			<linearGradient id="SVGID_2_" gradientUnits="userSpaceOnUse" x1="-9.1629" y1="487.6171" x2="210.4135" y2="325.1391">
				<stop  offset="0" style="stop-color:#0F4C82;stop-opacity:0.8"/>
				<stop  offset="1" style="stop-color:#2A70AE;stop-opacity:0.8"/>
			</linearGradient>
			<path class="st1" d="M303.8,467.3c-8.4-17.5-12.2-38.9-27.4-50.5c-12-9.2-28.4-9.7-43-6.5c-14.6,3.2-28.4,9.6-42.9,13.1
				c-37.2,9-81.2-5.2-99.5-40.1c-8.9-17-11.1-36.7-15-55.6c-4.4-21.4-11.2-42.2-20.3-61.9c-5-10.9-10.7-21.6-18.8-30.3
				c-9.6-10.4-23.3-17.1-37-18.3V500h330.5C319.3,491.4,309.9,480.3,303.8,467.3z"/>
		</g>
	</g>
</g>
</svg>
