<?xml version="1.0" encoding="utf-8"?>
<!-- Generator: Adobe Illustrator 22.1.0, SVG Export Plug-In . SVG Version: 6.00 Build 0)  -->
<svg version="1.1" xmlns="http://www.w3.org/2000/svg" xmlns:xlink="http://www.w3.org/1999/xlink" x="0px" y="0px"
	 viewBox="0 0 259.3 250" style="enable-background:new 0 0 259.3 250;" xml:space="preserve">
<style type="text/css">
	.st0{fill:url(#SVGID_1_);}
	.st1{fill:url(#SVGID_2_);}
</style>
<g id="BACKGROUND">
</g>
<g id="Layer_3">
</g>
<g id="OBJECTS">
	<g>
		<linearGradient id="SVGID_1_" gradientUnits="userSpaceOnUse" x1="40.3849" y1="186.6174" x2="247.28" y2="32.6697">
			<stop  offset="0" style="stop-color:#2A70AE;stop-opacity:0.8"/>
			<stop  offset="1" style="stop-color:#0F4C82;stop-opacity:0.8"/>
		</linearGradient>
		<path class="st0" d="M44.8,39.8C55.7,61,48.4,59,48.2,80.5C48,102.9,74,97.9,72,116.9c-1.7,15.5,1.6,35.2,13.6,40.2
			c15,6.3,28.6,1.9,41.2,4.2c15.5,2.7,7.2,26.3,18.9,28.5c16.1,3.1,26.6-9.6,34.6,0.3c3.6,4.5,25.3,32.4,28.5,37.4
			c14.9,23.9,36.1,30.1,50.6,6.3V0H3.8C-1.6,27,32.4,15.6,44.8,39.8z"/>
		<g>
			<linearGradient id="SVGID_2_" gradientUnits="userSpaceOnUse" x1="-490.6798" y1="397.7655" x2="-242.026" y2="397.7655">
				<stop  offset="0" style="stop-color:#0F4C82;stop-opacity:0.8"/>
				<stop  offset="1" style="stop-color:#2A70AE;stop-opacity:0.8"/>
			</linearGradient>
			<path class="st1" d="M-262.2,476.4c-6.3-12.7-9.2-28.1-20.6-36.5c-9-6.6-21.3-7-32.3-4.7c-11,2.3-21.3,6.9-32.3,9.5
				c-28,6.5-61.1-3.8-74.8-29c-6.7-12.3-8.3-26.5-11.3-40.2c-3.3-15.4-8.5-30.5-15.2-44.8c-3.8-7.9-8.1-15.6-14.1-21.9
				c-7.2-7.5-17.5-12.3-27.8-13.2V500H-242C-250.4,493.8-257.5,485.8-262.2,476.4z"/>
		</g>
	</g>
</g>
</svg>
